<svg width="141" height="140" viewBox="0 0 141 140" fill="none" xmlns="http://www.w3.org/2000/svg">
<path d="M105.267 19.6183C105.267 14.0533 100.756 9.54199 95.1907 9.54199H20.0763C14.5113 9.54199 10 14.0533 10 19.6183V94.7327C10 100.298 14.5113 104.809 20.0763 104.809H95.1907C100.756 104.809 105.267 100.298 105.267 94.7327V19.6183Z" stroke="#C5C5C5" stroke-width="8" stroke-miterlimit="10" stroke-linejoin="round"/>
<path d="M10 83.7402H105.267" stroke="#C5C5C5" stroke-width="8" stroke-miterlimit="10" stroke-linejoin="round"/>
<path d="M54.8857 119.91L103.453 128.405C109.934 129.539 116.106 125.202 117.236 118.721L128.146 56.1717C129.177 50.2615 125.304 44.6082 119.421 43.4351V43.4351" stroke="#C5C5C5" stroke-width="8" stroke-miterlimit="10" stroke-linecap="round" stroke-linejoin="round"/>
<path d="M74.5798 47.0991L58.6411 73.2714L45.3588 68.0369L34.7324 83.7403H87.8621L74.5798 47.0991Z" stroke="#C5C5C5" stroke-width="8" stroke-miterlimit="10" stroke-linejoin="round"/>
<path d="M47.5569 36.5649C47.5569 42.3828 42.8406 47.0992 37.0226 47.0992V47.0992C31.2047 47.0992 26.4883 42.3828 26.4883 36.5649V36.5649C26.4883 30.7469 31.2047 26.0305 37.0226 26.0305V26.0305C42.8406 26.0305 47.5569 30.7469 47.5569 36.5649V36.5649Z" stroke="#C5C5C5" stroke-width="8" stroke-miterlimit="10" stroke-linecap="round" stroke-linejoin="round"/>
</svg>
